<svg width="211" height="93" viewBox="0 0 211 93" fill="none" xmlns="http://www.w3.org/2000/svg">
<g clip-path="url(#clip0_888_8232)">
<g filter="url(#filter0_d_888_8232)">
<path d="M210.922 10.5764H197.095V16.3856H210.922V10.5764Z" fill="#D8E2E7"/>
<path d="M200.041 13.4398H194.232V27.2672H200.041V13.4398Z" fill="#9EB3BE"/>
<path d="M200.041 16.3035H183.35V10.5762H194.232V-0.387573H200.041V16.3035Z" fill="#566D79"/>
<path d="M22.4176 23.0942H29.2902V49.0308C29.2902 53.2854 27.8993 56.4764 25.1176 58.6855C22.3358 60.8946 18.9814 62.0401 15.0542 62.0401C12.1088 62.0401 9.49068 61.4673 7.28164 60.3219C5.07261 59.1764 3.35447 57.54 2.12722 55.3309L8.09981 51.8945C9.49068 54.4309 11.8634 55.74 15.2178 55.74C17.4269 55.74 19.145 55.1673 20.4541 54.0218C21.7631 52.8763 22.3358 51.2399 22.3358 49.0308V46.0853C20.2904 48.8672 17.345 50.2581 13.5815 50.2581C9.73613 50.2581 6.5453 48.8672 3.92718 46.1672C1.30906 43.4671 0 40.1944 0 36.2671C0 32.4216 1.30906 29.1488 3.92718 26.367C6.5453 23.6669 9.73613 22.276 13.5815 22.276C17.345 22.276 20.2086 23.6669 22.3358 26.4488V23.0942H22.4176ZM9.32705 41.5853C10.7997 42.9762 12.5997 43.7126 14.8087 43.7126C17.0178 43.7126 18.8177 42.9762 20.2904 41.5853C21.7631 40.1944 22.4176 38.3944 22.4176 36.1852C22.4176 34.0579 21.6813 32.2579 20.2904 30.867C18.8177 29.4761 17.0178 28.7397 14.8087 28.7397C12.5997 28.7397 10.7997 29.4761 9.32705 30.867C7.85436 32.2579 7.19983 34.0579 7.19983 36.1852C7.19983 38.3944 7.93617 40.1944 9.32705 41.5853Z" fill="white"/>
<path d="M41.6444 27.7579C42.299 26.0397 43.3626 24.7306 44.9171 23.8306C46.3898 22.9306 48.1079 22.5215 49.9897 22.5215V30.3761C47.8625 30.1307 45.8989 30.5398 44.2626 31.6852C42.5444 32.8307 41.7263 34.7125 41.7263 37.3307V50.34H34.6901V23.0942H41.7263V27.7579H41.6444Z" fill="white"/>
<path d="M70.8529 23.0946H77.8891V50.3403H70.8529V47.313C69.1347 49.8494 66.4348 51.1585 62.7531 51.1585C59.8077 51.1585 57.3532 50.1767 55.3896 48.1312C53.426 46.1676 52.4442 43.3857 52.4442 39.8675V23.0946H59.4804V38.9675C59.4804 40.7675 59.9713 42.1584 60.9531 43.1403C61.9349 44.1221 63.244 44.613 64.8803 44.613C66.6802 44.613 68.1529 44.0403 69.2165 42.8948C70.2802 41.7493 70.8529 40.113 70.8529 37.822V23.0946Z" fill="white"/>
<path d="M99.0795 22.2759C102.761 22.2759 105.87 23.6668 108.488 26.4487C111.106 29.2305 112.416 32.6669 112.416 36.676C112.416 40.6852 111.106 44.1216 108.488 46.9034C105.87 49.6853 102.761 51.0762 99.0795 51.0762C95.2341 51.0762 92.2887 49.7671 90.2433 47.067V61.1399H83.2071V23.0941H90.2433V26.285C92.3705 23.585 95.3159 22.2759 99.0795 22.2759ZM92.3705 42.2397C93.7614 43.7125 95.5614 44.367 97.7704 44.367C99.9794 44.367 101.779 43.6306 103.17 42.2397C104.643 40.767 105.297 38.967 105.297 36.676C105.297 34.3851 104.561 32.5851 103.17 31.1123C101.698 29.6396 99.8976 28.985 97.7704 28.985C95.6432 28.985 93.7614 29.7214 92.3705 31.1123C90.9796 32.5851 90.2433 34.3851 90.2433 36.676C90.2433 38.967 90.9796 40.767 92.3705 42.2397Z" fill="white"/>
<path d="M139.497 46.9034C136.715 49.6853 133.279 51.0762 129.27 51.0762C125.261 51.0762 121.824 49.6853 119.043 46.9034C116.261 44.1216 114.87 40.6852 114.87 36.676C114.87 32.6669 116.261 29.2305 119.043 26.4487C121.824 23.6668 125.261 22.2759 129.27 22.2759C133.279 22.2759 136.715 23.6668 139.497 26.4487C142.278 29.2305 143.669 32.6669 143.669 36.676C143.669 40.6852 142.278 44.1216 139.497 46.9034ZM123.952 42.0761C125.342 43.467 127.142 44.2034 129.188 44.2034C131.315 44.2034 133.033 43.467 134.506 42.0761C135.979 40.6852 136.633 38.8851 136.633 36.676C136.633 34.4669 135.897 32.6669 134.506 31.276C133.115 29.885 131.315 29.1487 129.188 29.1487C127.061 29.1487 125.342 29.885 123.952 31.276C122.561 32.6669 121.824 34.4669 121.824 36.676C121.824 38.8851 122.561 40.6852 123.952 42.0761Z" fill="white"/>
<path d="M180.814 23.0945H187.85V50.3403H180.814V47.1493C178.687 49.7675 175.741 51.1585 171.896 51.1585C168.296 51.1585 165.187 49.7675 162.569 46.9857C159.951 44.2038 158.642 40.7674 158.642 36.7583C158.642 32.7492 159.951 29.3128 162.569 26.5309C165.187 23.7491 168.296 22.3582 171.896 22.3582C175.741 22.3582 178.687 23.6673 180.814 26.3673V23.0945ZM167.805 42.2402C169.196 43.7129 170.996 44.3675 173.205 44.3675C175.414 44.3675 177.214 43.6311 178.605 42.2402C179.996 40.8493 180.732 38.9674 180.732 36.6765C180.732 34.3856 179.996 32.5855 178.605 31.1128C177.132 29.64 175.332 28.9855 173.205 28.9855C171.078 28.9855 169.196 29.7219 167.805 31.1128C166.414 32.5855 165.678 34.3856 165.678 36.6765C165.678 38.9674 166.414 40.7674 167.805 42.2402Z" fill="white"/>
<path d="M114.7 83.06C115.047 84.3134 115.987 84.94 117.52 84.94C118.507 84.94 119.253 84.6067 119.76 83.94L121.84 85.14C120.853 86.5667 119.4 87.28 117.48 87.28C115.827 87.28 114.5 86.78 113.5 85.78C112.5 84.78 112 83.52 112 82C112 80.4934 112.493 79.24 113.48 78.24C114.467 77.2267 115.733 76.72 117.28 76.72C118.747 76.72 119.953 77.2267 120.9 78.24C121.86 79.2534 122.34 80.5067 122.34 82C122.34 82.3334 122.307 82.6867 122.24 83.06H114.7ZM114.66 81.06H119.76C119.613 80.38 119.307 79.8734 118.84 79.54C118.387 79.2067 117.867 79.04 117.28 79.04C116.587 79.04 116.013 79.22 115.56 79.58C115.107 79.9267 114.807 80.42 114.66 81.06Z" fill="white"/>
<path d="M131.643 73H134.223V87H131.643V85.82C130.883 86.7934 129.803 87.28 128.403 87.28C127.056 87.28 125.903 86.7734 124.943 85.76C123.996 84.7334 123.523 83.48 123.523 82C123.523 80.52 123.996 79.2734 124.943 78.26C125.903 77.2334 127.056 76.72 128.403 76.72C129.803 76.72 130.883 77.2067 131.643 78.18V73ZM126.883 84.04C127.416 84.56 128.083 84.82 128.883 84.82C129.683 84.82 130.343 84.56 130.863 84.04C131.383 83.5067 131.643 82.8267 131.643 82C131.643 81.1734 131.383 80.5 130.863 79.98C130.343 79.4467 129.683 79.18 128.883 79.18C128.083 79.18 127.416 79.4467 126.883 79.98C126.363 80.5 126.103 81.1734 126.103 82C126.103 82.8267 126.363 83.5067 126.883 84.04Z" fill="white"/>
<path d="M137.862 75.8C137.436 75.8 137.062 75.6467 136.743 75.34C136.436 75.02 136.282 74.6467 136.282 74.22C136.282 73.7934 136.436 73.42 136.743 73.1C137.062 72.78 137.436 72.62 137.862 72.62C138.302 72.62 138.676 72.78 138.983 73.1C139.302 73.42 139.462 73.7934 139.462 74.22C139.462 74.6467 139.302 75.02 138.983 75.34C138.676 75.6467 138.302 75.8 137.862 75.8ZM136.583 87V77H139.163V87H136.583Z" fill="white"/>
<path d="M147.244 79.48H144.984V83.64C144.984 83.9867 145.071 84.24 145.244 84.4C145.417 84.56 145.671 84.6534 146.004 84.68C146.337 84.6934 146.751 84.6867 147.244 84.66V87C145.471 87.2 144.217 87.0334 143.484 86.5C142.764 85.9667 142.404 85.0134 142.404 83.64V79.48H140.664V77H142.404V74.98L144.984 74.2V77H147.244V79.48Z" fill="white"/>
<path d="M157.27 85.76C156.244 86.7734 154.99 87.28 153.51 87.28C152.03 87.28 150.777 86.7734 149.75 85.76C148.737 84.7334 148.23 83.48 148.23 82C148.23 80.52 148.737 79.2734 149.75 78.26C150.777 77.2334 152.03 76.72 153.51 76.72C154.99 76.72 156.244 77.2334 157.27 78.26C158.297 79.2734 158.81 80.52 158.81 82C158.81 83.48 158.297 84.7334 157.27 85.76ZM151.57 83.98C152.09 84.5 152.737 84.76 153.51 84.76C154.284 84.76 154.93 84.5 155.45 83.98C155.97 83.46 156.23 82.8 156.23 82C156.23 81.2 155.97 80.54 155.45 80.02C154.93 79.5 154.284 79.24 153.51 79.24C152.737 79.24 152.09 79.5 151.57 80.02C151.064 80.54 150.81 81.2 150.81 82C150.81 82.8 151.064 83.46 151.57 83.98Z" fill="white"/>
<path d="M163.205 78.72C163.445 78.08 163.839 77.6 164.385 77.28C164.945 76.96 165.565 76.8 166.245 76.8V79.68C165.459 79.5867 164.752 79.7467 164.125 80.16C163.512 80.5734 163.205 81.26 163.205 82.22V87H160.625V77H163.205V78.72Z" fill="white"/>
<path d="M169.034 75.8C168.608 75.8 168.234 75.6467 167.914 75.34C167.608 75.02 167.454 74.6467 167.454 74.22C167.454 73.7934 167.608 73.42 167.914 73.1C168.234 72.78 168.608 72.62 169.034 72.62C169.474 72.62 169.848 72.78 170.154 73.1C170.474 73.42 170.634 73.7934 170.634 74.22C170.634 74.6467 170.474 75.02 170.154 75.34C169.848 75.6467 169.474 75.8 169.034 75.8ZM167.754 87V77H170.334V87H167.754Z" fill="white"/>
<path d="M180.296 77H182.876V87H180.296V85.82C179.522 86.7934 178.436 87.28 177.036 87.28C175.702 87.28 174.556 86.7734 173.596 85.76C172.649 84.7334 172.176 83.48 172.176 82C172.176 80.52 172.649 79.2734 173.596 78.26C174.556 77.2334 175.702 76.72 177.036 76.72C178.436 76.72 179.522 77.2067 180.296 78.18V77ZM175.536 84.04C176.056 84.56 176.716 84.82 177.516 84.82C178.316 84.82 178.976 84.56 179.496 84.04C180.029 83.5067 180.296 82.8267 180.296 82C180.296 81.1734 180.029 80.5 179.496 79.98C178.976 79.4467 178.316 79.18 177.516 79.18C176.716 79.18 176.056 79.4467 175.536 79.98C175.016 80.5 174.756 81.1734 174.756 82C174.756 82.8267 175.016 83.5067 175.536 84.04Z" fill="white"/>
<path d="M185.215 87V72.4H187.795V87H185.215Z" fill="white"/>
</g>
</g>
<defs>
<filter id="filter0_d_888_8232" x="-3" y="-2.38757" width="216.922" height="93.6676" filterUnits="userSpaceOnUse" color-interpolation-filters="sRGB">
<feFlood flood-opacity="0" result="BackgroundImageFix"/>
<feColorMatrix in="SourceAlpha" type="matrix" values="0 0 0 0 0 0 0 0 0 0 0 0 0 0 0 0 0 0 127 0" result="hardAlpha"/>
<feOffset dy="1"/>
<feGaussianBlur stdDeviation="1.5"/>
<feColorMatrix type="matrix" values="0 0 0 0 0.105882 0 0 0 0 0.152941 0 0 0 0 0.192157 0 0 0 0.160784 0"/>
<feBlend mode="normal" in2="BackgroundImageFix" result="effect1_dropShadow_888_8232"/>
<feBlend mode="normal" in="SourceGraphic" in2="effect1_dropShadow_888_8232" result="shape"/>
</filter>
<clipPath id="clip0_888_8232">
<rect width="211" height="93" fill="white"/>
</clipPath>
</defs>
</svg>
